<svg xmlns="http://www.w3.org/2000/svg" width="134" height="52" viewBox="0 0 134 52" fill="none"><g clip-path="url(#clip0_1683_141635)"><path d="M104.556 20.6244C105.238 16.788 107.767 13.0718 110.277 13.0718C110.277 13.0718 113.047 13.0718 111.822 18.611C111.602 19.6327 111.28 20.6444 110.859 21.616C110.507 21.586 110.146 21.636 109.805 21.7562C109.464 21.8764 109.152 22.0668 108.882 22.3172C108.57 22.6277 108.37 23.0384 108.329 23.4591C108.239 23.99 108.329 24.5309 108.58 24.9816C107.898 25.7329 106.964 26.2036 105.981 26.3038C104.184 26.3038 103.863 24.4507 104.556 20.6143V20.6244ZM12.9076 1.35223C11.7232 1.91317 10.4786 2.30382 9.21398 2.50415C9.06342 2.5342 8.9229 2.61434 8.80246 2.7145C8.68201 2.81467 8.59168 2.94489 8.53146 3.09514C8.35079 3.55591 7.5378 5.84973 7.30694 6.45073C7.23669 6.63103 7.1062 6.78128 6.94561 6.89146C6.78502 7.00165 6.59432 7.05173 6.41365 7.0317C5.5605 6.9716 2.31855 6.5509 1.88696 6.52085C1.71633 6.51083 1.55574 6.5509 1.40518 6.63103C1.25463 6.71116 1.12415 6.84138 1.04385 6.99163C0.421554 8.30382 0.0602221 9.71617 0 11.1385C0.020074 11.3088 0.0903331 11.4691 0.20074 11.5993C0.311147 11.7295 0.461702 11.8097 0.632332 11.8397C0.963553 11.8998 3.87429 12.3305 4.20551 12.3706C4.31591 12.3906 4.42632 12.4307 4.51665 12.5008C4.60699 12.5609 4.68728 12.6511 4.74751 12.7512C4.80773 12.8514 4.83784 12.9616 4.84788 13.0818C4.85791 13.202 4.84788 13.3222 4.80773 13.4324C1.65611 23.409 1.61596 29.9499 10.2076 29.9499C17.354 29.9499 23.316 20.9249 26.3672 12.3205C26.9694 12.8714 27.5315 13.4524 28.0534 14.0734C28.2341 14.3239 28.3144 14.6344 28.3044 14.9549C28.2943 15.2754 28.1839 15.586 27.9832 15.8564C26.0059 18.5409 19.0603 28.8781 28.1438 29.9499C31.446 30.3305 34.4069 28.3272 36.9161 25.4223C36.9864 27.3355 37.9098 29.7996 42.1956 29.7996C45.8691 29.7996 48.539 26.9549 50.2453 24.2704C50.175 24.5108 48.6494 29.7996 53.0757 29.7996C55.2939 29.7996 57.773 28.0668 59.8105 26.1135C59.6299 26.7446 59.4492 27.3856 59.2585 28.0367C59.1682 28.3272 59.1983 28.6377 59.3187 28.8981C59.4492 29.1586 59.67 29.3489 59.9511 29.4491C61.4064 30.01 63.0425 29.9699 64.538 29.3289C64.7086 29.2487 64.8491 29.1385 64.9696 28.9983C65.09 28.8581 65.1804 28.6878 65.2205 28.5175C65.5116 27.4758 66.2543 24.9415 67.3985 21.4157H67.4387C67.9706 26.2137 70.5803 29.7996 75.2876 29.7996C78.7102 29.7996 81.6109 27.7763 84.0399 24.7112C84.4012 27.8464 85.967 29.9599 89.5402 29.9599C93.1133 29.9599 95.8936 27.9065 98.3226 24.8314C98.8344 28.2771 100.701 29.9599 104.636 29.9599C107.496 29.8898 110.327 28.8881 112.675 27.0951C112.675 27.0851 112.665 27.0851 112.665 27.0751C112.264 26.1836 112.093 25.192 112.154 24.1803C112.254 22.6377 112.906 21.1552 113.99 19.9933C115.074 18.8314 116.51 18.1001 118.035 17.9098H118.075C118.116 17.6193 118.146 17.3389 118.166 17.0684C118.637 9.45574 111.371 9.45574 111.371 9.45574C104.455 9.45574 98.9348 14.8948 98.2724 20.6444C96.3754 23.5993 94.1371 25.9432 91.7584 26.2938C87.8339 26.8848 89.2792 20.1736 91.7885 13.192C91.8386 13.0517 91.939 12.9215 92.0595 12.8314C92.1799 12.7412 92.3305 12.6911 92.481 12.6911C94.2776 12.6911 96.0843 12.5609 97.891 12.2905C98.0114 12.2704 98.1218 12.2203 98.2222 12.1502C98.3226 12.0801 98.4029 11.9799 98.453 11.8698C98.8144 11.0985 99.0051 10.2671 99.0452 9.42569C99.0452 9.32552 99.0352 9.23537 99.0051 9.14522C98.975 9.05507 98.9248 8.97494 98.8545 8.91484C98.7843 8.85474 98.714 8.80465 98.6237 8.76459C98.5333 8.72452 98.443 8.7145 98.3527 8.72452C97.088 8.81467 95.7631 8.8347 94.4483 8.82469C94.3379 8.82469 94.2275 8.79464 94.1271 8.74455C94.0267 8.69447 93.9464 8.61434 93.8962 8.52419C93.836 8.43404 93.8059 8.32385 93.7959 8.21367C93.7959 8.10349 93.8059 7.9933 93.8561 7.88312C94.378 6.48078 94.9903 5.10849 95.6628 3.75624C95.723 3.63604 95.7531 3.50582 95.7631 3.38562C95.7732 3.26542 95.7631 3.12519 95.7129 3.015C95.6728 2.8948 95.6025 2.79464 95.5122 2.69447C95.4219 2.60432 95.3215 2.5342 95.201 2.49414C93.7959 1.91317 92.2201 1.78295 90.6744 2.1135C90.5238 2.14355 90.3833 2.21367 90.2628 2.30382C90.1424 2.39397 90.042 2.52419 89.9718 2.66442C89.0383 4.38729 88.2554 6.1903 87.6432 8.04338C87.583 8.19363 87.4826 8.32385 87.3521 8.414C87.2216 8.50415 87.061 8.54422 86.9004 8.5342C86.1878 8.48412 85.6358 8.43404 85.2845 8.414C85.144 8.39397 85.0034 8.42402 84.873 8.49414C84.7425 8.56425 84.6421 8.66442 84.5719 8.79464C84.1503 9.59597 83.9696 10.4975 84.06 11.3689C84.07 11.5092 84.1302 11.6494 84.2206 11.7496C84.3109 11.8497 84.4414 11.9198 84.5819 11.9499C84.8629 12.01 85.144 12.0601 85.415 12.1102C85.5053 12.1302 85.5956 12.1602 85.6759 12.2103C85.7562 12.2604 85.8164 12.3305 85.8666 12.4107C85.9168 12.4908 85.9469 12.5809 85.957 12.6811C85.957 12.7813 85.957 12.8814 85.9268 12.9716C85.0938 15.6861 84.4715 18.4407 84.06 21.2153C82.1028 24.2905 79.9649 25.7829 77.5259 26.1436C74.8058 26.5442 72.8587 23.5793 72.7784 19.4223C74.8661 18.4107 76.753 17.0083 78.3489 15.2955C79.9448 13.5826 81.1994 11.5893 82.0526 9.42569C82.1429 9.20532 82.1429 8.9549 82.0526 8.73454C81.9622 8.51417 81.8117 8.34389 81.6009 8.25374C80.1355 7.66275 78.4693 7.64272 76.9136 8.19364C76.753 8.24372 76.6025 8.33387 76.482 8.46409C76.3616 8.58429 76.2712 8.74455 76.2311 8.90482C74.5449 14.7946 70.4397 16.3072 69.6267 16.5476C69.5665 16.5676 69.2654 16.6477 69.0245 16.7078C70.249 12.7512 73.8925 4.33721 74.1434 3.78629C74.2036 3.63604 74.2337 3.48579 74.2237 3.32552C74.2137 3.16525 74.1735 3.02502 74.0932 2.8948C74.023 2.76459 73.9126 2.6544 73.7821 2.57427C73.6516 2.49414 73.5111 2.45407 73.3505 2.44405C72.3468 2.55424 71.3832 2.93487 70.5501 3.55591C69.7572 3.98662 68.9141 4.29714 68.0409 4.45741C67.9205 4.47744 67.8 4.53754 67.7097 4.62769C67.6193 4.71784 67.539 4.81801 67.4989 4.93821C67.4487 5.04839 67.4186 5.15858 67.3885 5.26876C67.3584 5.32886 67.3483 5.37894 67.3182 5.42903C64.9896 10.7679 62.9421 16.217 61.1756 21.7362C59.3187 24.2704 57.3916 25.9032 56.0366 25.9032C53.7683 25.9032 56.3578 19.202 57.221 17.1185C57.3013 16.9282 57.3113 16.7279 57.2611 16.5375C57.211 16.3472 57.0905 16.187 56.94 16.0768C55.7154 15.2855 54.2099 14.995 52.7244 15.2454C52.5538 15.2754 52.3832 15.3456 52.2426 15.4557C52.1021 15.5659 51.9817 15.7062 51.9114 15.8664C45.3874 29.5392 42.7376 26.9549 43.2796 22.8581C43.8015 18.7011 48.2078 13.192 52.1925 13.192C54.4207 13.212 56.5686 13.823 58.4254 14.9449C58.586 15.0451 58.7868 15.0851 58.9775 15.0751C59.1682 15.0651 59.3589 14.985 59.5295 14.8648C59.9611 14.5342 60.3525 14.1436 60.6737 13.7128C60.8042 13.5225 60.8845 13.2921 60.8845 13.0617C60.8845 12.8314 60.8243 12.611 60.7038 12.4307C59.9812 11.3789 58.0139 9.34556 53.3467 9.34556C47.5453 9.34556 39.0942 14.3339 37.3477 21.9165C30.1512 31.1319 27.4512 25.5526 32.0984 19.232C34.5675 15.8764 35.4608 14.5042 31.7973 11.439C28.1438 8.36392 29.1876 8.1736 29.3081 6.35056C29.4185 4.52752 26.0059 2.80465 24.3899 6.83136C24.1089 7.50248 24.0085 8.22369 24.0888 8.91484C24.1792 9.616 24.4502 10.2571 24.8818 10.798C22.7539 16.4374 17.3038 25.5926 12.4057 26.3239C8.47124 26.9148 10.3983 19.8531 12.8976 12.8814C12.9477 12.7412 13.0481 12.611 13.1686 12.5208C13.299 12.4307 13.4496 12.3806 13.6002 12.3806C15.4068 12.3806 17.2135 12.2504 19.0201 11.9799C19.1305 11.9599 19.2409 11.9098 19.3413 11.8397C19.4417 11.7696 19.5119 11.6694 19.5621 11.5592C20.0539 10.4274 20.3952 9.24539 20.5759 8.04338C20.5759 7.94322 20.5658 7.85307 20.5357 7.76292C20.5056 7.67277 20.4554 7.59263 20.3852 7.53253C20.3149 7.47243 20.2447 7.42235 20.1543 7.38228C20.064 7.35223 19.9737 7.3322 19.8833 7.34222C18.6287 7.41233 17.2938 7.44238 15.9789 7.44238C15.8685 7.44238 15.7581 7.41233 15.6678 7.36225C15.5674 7.31217 15.4871 7.23203 15.4369 7.14188C15.3767 7.05173 15.3466 6.94155 15.3366 6.83136C15.3366 6.72118 15.3466 6.611 15.3968 6.50081C15.999 5.03838 16.9826 2.3539 17.2637 1.68278C17.3339 1.50248 17.3741 1.31217 17.364 1.12185C17.354 0.931532 17.3038 0.751231 17.2034 0.590964C17.1131 0.430697 16.9826 0.30048 16.822 0.200313C16.6614 0.100146 16.4908 0.0500627 16.3001 0.0300293H16.1997C15.0154 0.200313 13.8812 0.661081 12.8875 1.3923" fill="#354564"></path><path d="M114.101 24.1703C114.051 25.0417 114.251 25.8831 114.683 26.6043C115.115 27.3255 115.757 27.8865 116.53 28.217C117.303 28.5476 118.166 28.6377 119.019 28.4674C119.872 28.2971 120.665 27.8764 121.317 27.2654C121.96 26.6544 122.421 25.8731 122.642 25.0217C122.863 24.1703 122.833 23.2888 122.552 22.4875C122.271 21.6861 121.759 21.005 121.077 20.5242C120.394 20.0434 119.571 19.783 118.718 19.783C118.146 19.783 117.574 19.8931 117.042 20.1135C116.5 20.3339 116.008 20.6544 115.576 21.0651C115.145 21.4758 114.793 21.9566 114.552 22.4875C114.302 23.0184 114.151 23.5893 114.121 24.1703" fill="#1DC763"></path><path d="M104.269 45.7732C101.198 45.7732 99 43.7598 99 40.4644C99 37.1689 101.158 35.1755 104.269 35.1755C107.381 35.1755 109.499 37.1488 109.499 40.3542C109.499 40.6346 109.479 40.9251 109.438 41.2056H102.583C102.653 42.4076 103.306 42.8884 104.119 42.8884C104.821 42.8884 105.213 42.4977 105.414 42.077H109.278C108.796 44.2006 106.859 45.7832 104.269 45.7832V45.7732ZM102.603 39.4426H105.805C105.805 38.5211 105.082 38.0203 104.249 38.0203C103.416 38.0203 102.774 38.5011 102.603 39.4426Z" fill="#1DC763"></path><path d="M114.818 35.1655C116.183 35.1655 117.257 35.7765 117.829 36.7181V32.0002H121.473V45.653H117.829V44.2106C117.297 45.1321 116.253 45.7832 114.798 45.7832C112.339 45.7832 110.382 43.7699 110.382 40.4744C110.382 37.1789 112.339 35.1856 114.818 35.1856V35.1655ZM115.962 38.3208C114.929 38.3208 114.075 39.062 114.075 40.4644C114.075 41.8667 114.929 42.6179 115.962 42.6179C116.996 42.6179 117.849 41.8667 117.849 40.4644C117.849 39.062 116.976 38.3208 115.962 38.3208Z" fill="#1DC763"></path><path d="M134.15 45.6429H130.506V44.1704C129.914 45.0519 128.82 45.7431 127.365 45.7431C124.966 45.7431 123.47 44.0502 123.47 41.3157V35.3057H127.073V40.8549C127.073 42.0569 127.756 42.7581 128.79 42.7581C129.824 42.7581 130.506 42.0569 130.506 40.8549V35.3057H134.15V45.6529V45.6429Z" fill="#1DC763"></path></g><defs><clipPath id="clip0_1683_141635"><rect width="134" height="52" fill="white"></rect></clipPath></defs></svg>